<mxfile host="65bd71144e">
    <diagram id="_r_D91sVqhfaXCelm77l" name="Page-1">
        <mxGraphModel dx="1813" dy="856" grid="1" gridSize="10" guides="1" tooltips="1" connect="1" arrows="1" fold="1" page="1" pageScale="1" pageWidth="850" pageHeight="1100" background="#ffffff" math="0" shadow="0">
            <root>
                <mxCell id="0"/>
                <mxCell id="1" parent="0"/>
                <mxCell id="2" value="" style="ellipse;whiteSpace=wrap;html=1;aspect=fixed;fillColor=#66FFFF;strokeColor=#000000;strokeWidth=2;" parent="1" vertex="1">
                    <mxGeometry x="138" y="280.5" width="39" height="39" as="geometry"/>
                </mxCell>
                <mxCell id="3" value="" style="ellipse;whiteSpace=wrap;html=1;aspect=fixed;fillColor=#66FFFF;strokeColor=#000000;strokeWidth=2;" parent="1" vertex="1">
                    <mxGeometry x="177" y="119.5" width="39" height="39" as="geometry"/>
                </mxCell>
                <mxCell id="4" value="" style="ellipse;whiteSpace=wrap;html=1;aspect=fixed;fillColor=#66FFFF;strokeColor=#000000;strokeWidth=2;" parent="1" vertex="1">
                    <mxGeometry x="99" y="199.5" width="39" height="39" as="geometry"/>
                </mxCell>
                <mxCell id="5" value="" style="ellipse;whiteSpace=wrap;html=1;aspect=fixed;fillColor=#66FFFF;strokeColor=#000000;strokeWidth=2;" parent="1" vertex="1">
                    <mxGeometry x="255" y="199.5" width="39" height="39" as="geometry"/>
                </mxCell>
                <mxCell id="7" value="" style="ellipse;whiteSpace=wrap;html=1;aspect=fixed;fillColor=#66FFFF;strokeColor=#000000;strokeWidth=2;" parent="1" vertex="1">
                    <mxGeometry x="60" y="280.5" width="39" height="39" as="geometry"/>
                </mxCell>
                <mxCell id="9" value="" style="endArrow=none;html=1;entryX=0;entryY=1;entryDx=0;entryDy=0;exitX=1;exitY=0;exitDx=0;exitDy=0;strokeColor=#000000;strokeWidth=3;" parent="1" source="4" target="3" edge="1">
                    <mxGeometry width="50" height="50" relative="1" as="geometry">
                        <mxPoint x="187" y="289.5" as="sourcePoint"/>
                        <mxPoint x="237" y="239.5" as="targetPoint"/>
                    </mxGeometry>
                </mxCell>
                <mxCell id="10" value="" style="endArrow=none;html=1;entryX=0;entryY=1;entryDx=0;entryDy=0;exitX=0.5;exitY=0;exitDx=0;exitDy=0;strokeColor=#000000;strokeWidth=3;" parent="1" source="7" target="4" edge="1">
                    <mxGeometry width="50" height="50" relative="1" as="geometry">
                        <mxPoint x="36.99858223313612" y="290.9214177668639" as="sourcePoint"/>
                        <mxPoint x="87.42141776686407" y="238.49858223313618" as="targetPoint"/>
                        <Array as="points">
                            <mxPoint x="91" y="259.5"/>
                        </Array>
                    </mxGeometry>
                </mxCell>
                <mxCell id="11" value="" style="endArrow=none;html=1;entryX=1;entryY=1;entryDx=0;entryDy=0;exitX=0.5;exitY=0;exitDx=0;exitDy=0;strokeColor=#000000;strokeWidth=3;rounded=1;" parent="1" source="2" target="4" edge="1">
                    <mxGeometry width="50" height="50" relative="1" as="geometry">
                        <mxPoint x="116.99858223313618" y="290.9214177668639" as="sourcePoint"/>
                        <mxPoint x="167.42141776686412" y="238.4985822331363" as="targetPoint"/>
                    </mxGeometry>
                </mxCell>
                <mxCell id="12" value="" style="endArrow=none;html=1;entryX=1;entryY=1;entryDx=0;entryDy=0;exitX=0;exitY=0;exitDx=0;exitDy=0;strokeColor=#000000;strokeWidth=3;" parent="1" source="5" target="3" edge="1">
                    <mxGeometry width="50" height="50" relative="1" as="geometry">
                        <mxPoint x="215.99858223313618" y="199.50141776686382" as="sourcePoint"/>
                        <mxPoint x="266.4214177668641" y="147.07858223313622" as="targetPoint"/>
                    </mxGeometry>
                </mxCell>
                <mxCell id="16" value="" style="ellipse;whiteSpace=wrap;html=1;aspect=fixed;fillColor=#FF66FF;strokeColor=#000000;strokeWidth=2;" vertex="1" parent="1">
                    <mxGeometry x="562" y="90" width="39" height="39" as="geometry"/>
                </mxCell>
                <mxCell id="17" value="" style="ellipse;whiteSpace=wrap;html=1;aspect=fixed;fillColor=#FF66FF;strokeColor=#000000;strokeWidth=2;" vertex="1" parent="1">
                    <mxGeometry x="460" y="199.5" width="39" height="39" as="geometry"/>
                </mxCell>
                <mxCell id="18" value="" style="ellipse;whiteSpace=wrap;html=1;aspect=fixed;fillColor=#FF66FF;strokeColor=#000000;strokeWidth=2;" vertex="1" parent="1">
                    <mxGeometry x="609" y="290" width="39" height="39" as="geometry"/>
                </mxCell>
                <mxCell id="19" value="" style="endArrow=none;html=1;entryX=0;entryY=1;entryDx=0;entryDy=0;exitX=1;exitY=0;exitDx=0;exitDy=0;strokeColor=#000000;strokeWidth=3;" edge="1" parent="1" source="17" target="16">
                    <mxGeometry width="50" height="50" relative="1" as="geometry">
                        <mxPoint x="525" y="289.5" as="sourcePoint"/>
                        <mxPoint x="575" y="239.5" as="targetPoint"/>
                    </mxGeometry>
                </mxCell>
                <mxCell id="20" value="" style="endArrow=none;html=1;entryX=1;entryY=1;entryDx=0;entryDy=0;exitX=0;exitY=0;exitDx=0;exitDy=0;strokeColor=#000000;strokeWidth=3;" edge="1" parent="1" source="34" target="16">
                    <mxGeometry width="50" height="50" relative="1" as="geometry">
                        <mxPoint x="664.7114177668627" y="205.71141776686238" as="sourcePoint"/>
                        <mxPoint x="604.4214177668641" y="147.07858223313622" as="targetPoint"/>
                    </mxGeometry>
                </mxCell>
                <mxCell id="21" value="" style="ellipse;whiteSpace=wrap;html=1;aspect=fixed;fillColor=#FF66FF;strokeColor=#000000;strokeWidth=2;" vertex="1" parent="1">
                    <mxGeometry x="570" y="369" width="39" height="39" as="geometry"/>
                </mxCell>
                <mxCell id="22" value="" style="endArrow=none;html=1;strokeColor=#000000;strokeWidth=3;exitX=0.645;exitY=0.005;exitDx=0;exitDy=0;exitPerimeter=0;entryX=0;entryY=1;entryDx=0;entryDy=0;" edge="1" parent="1" source="21" target="18">
                    <mxGeometry width="50" height="50" relative="1" as="geometry">
                        <mxPoint x="609" y="359" as="sourcePoint"/>
                        <mxPoint x="609" y="329" as="targetPoint"/>
                    </mxGeometry>
                </mxCell>
                <mxCell id="23" value="" style="ellipse;whiteSpace=wrap;html=1;aspect=fixed;fillColor=#FF66FF;strokeColor=#000000;strokeWidth=2;" vertex="1" parent="1">
                    <mxGeometry x="648" y="369" width="39" height="39" as="geometry"/>
                </mxCell>
                <mxCell id="24" value="" style="endArrow=none;html=1;entryX=1;entryY=1;entryDx=0;entryDy=0;strokeColor=#000000;strokeWidth=3;rounded=1;exitX=0.342;exitY=0.034;exitDx=0;exitDy=0;exitPerimeter=0;" edge="1" parent="1" source="23" target="18">
                    <mxGeometry width="50" height="50" relative="1" as="geometry">
                        <mxPoint x="735" y="376.71" as="sourcePoint"/>
                        <mxPoint x="709.9985822331423" y="338.9985822331424" as="targetPoint"/>
                    </mxGeometry>
                </mxCell>
                <mxCell id="25" value="" style="ellipse;whiteSpace=wrap;html=1;aspect=fixed;fillColor=#FF66FF;strokeColor=#000000;strokeWidth=2;" vertex="1" parent="1">
                    <mxGeometry x="510" y="290" width="39" height="39" as="geometry"/>
                </mxCell>
                <mxCell id="33" value="" style="endArrow=none;html=1;entryX=1;entryY=1;entryDx=0;entryDy=0;exitX=0.5;exitY=0;exitDx=0;exitDy=0;strokeColor=#000000;strokeWidth=3;" edge="1" parent="1" source="25" target="17">
                    <mxGeometry width="50" height="50" relative="1" as="geometry">
                        <mxPoint x="507.2885822331241" y="225.21141776687557" as="sourcePoint"/>
                        <mxPoint x="574.7114177668614" y="172.7885822331382" as="targetPoint"/>
                    </mxGeometry>
                </mxCell>
                <mxCell id="34" value="" style="ellipse;whiteSpace=wrap;html=1;aspect=fixed;fillColor=#FF66FF;strokeColor=#000000;strokeWidth=2;" vertex="1" parent="1">
                    <mxGeometry x="660" y="200.75" width="39" height="39" as="geometry"/>
                </mxCell>
                <mxCell id="36" value="" style="ellipse;whiteSpace=wrap;html=1;aspect=fixed;fillColor=#FF66FF;strokeColor=#000000;strokeWidth=2;" vertex="1" parent="1">
                    <mxGeometry x="731" y="290" width="39" height="39" as="geometry"/>
                </mxCell>
                <mxCell id="37" value="" style="endArrow=none;html=1;entryX=0;entryY=1;entryDx=0;entryDy=0;strokeColor=#000000;strokeWidth=3;exitX=0.5;exitY=0;exitDx=0;exitDy=0;" edge="1" parent="1" source="18" target="34">
                    <mxGeometry width="50" height="50" relative="1" as="geometry">
                        <mxPoint x="633" y="261.75" as="sourcePoint"/>
                        <mxPoint x="737.2114177668614" y="229.3285822331382" as="targetPoint"/>
                    </mxGeometry>
                </mxCell>
                <mxCell id="38" value="" style="endArrow=none;html=1;entryX=1;entryY=1;entryDx=0;entryDy=0;exitX=0.5;exitY=0;exitDx=0;exitDy=0;strokeColor=#000000;strokeWidth=3;" edge="1" parent="1" source="36" target="34">
                    <mxGeometry width="50" height="50" relative="1" as="geometry">
                        <mxPoint x="707.2885822331241" y="226.46141776687557" as="sourcePoint"/>
                        <mxPoint x="774.7114177668614" y="174.0385822331382" as="targetPoint"/>
                    </mxGeometry>
                </mxCell>
                <mxCell id="39" value="&lt;font color=&quot;#000000&quot;&gt;&lt;b&gt;diff = 0&lt;/b&gt;&lt;/font&gt;" style="text;html=1;align=right;verticalAlign=middle;whiteSpace=wrap;rounded=0;" vertex="1" parent="1">
                    <mxGeometry x="-15" y="285" width="70" height="30" as="geometry"/>
                </mxCell>
                <mxCell id="40" value="&lt;font color=&quot;#000000&quot;&gt;&lt;b&gt;diff = 0&lt;/b&gt;&lt;/font&gt;" style="text;html=1;align=center;verticalAlign=middle;whiteSpace=wrap;rounded=0;" vertex="1" parent="1">
                    <mxGeometry x="177" y="285" width="53" height="30" as="geometry"/>
                </mxCell>
                <mxCell id="41" value="&lt;font color=&quot;#000000&quot;&gt;&lt;b&gt;diff = 0&lt;/b&gt;&lt;/font&gt;" style="text;html=1;align=center;verticalAlign=middle;whiteSpace=wrap;rounded=0;" vertex="1" parent="1">
                    <mxGeometry x="46" y="204" width="53" height="30" as="geometry"/>
                </mxCell>
                <mxCell id="42" value="&lt;font color=&quot;#000000&quot;&gt;&lt;b&gt;diff = 0&lt;/b&gt;&lt;/font&gt;" style="text;html=1;align=center;verticalAlign=middle;whiteSpace=wrap;rounded=0;" vertex="1" parent="1">
                    <mxGeometry x="294" y="204" width="53" height="30" as="geometry"/>
                </mxCell>
                <mxCell id="43" value="&lt;font color=&quot;#000000&quot;&gt;&lt;b&gt;diff = 1&lt;/b&gt;&lt;/font&gt;" style="text;html=1;align=center;verticalAlign=middle;whiteSpace=wrap;rounded=0;" vertex="1" parent="1">
                    <mxGeometry x="216" y="124" width="53" height="30" as="geometry"/>
                </mxCell>
                <mxCell id="44" value="&lt;font color=&quot;#000000&quot;&gt;&lt;b&gt;diff = 0&lt;/b&gt;&lt;/font&gt;" style="text;html=1;align=center;verticalAlign=middle;whiteSpace=wrap;rounded=0;" vertex="1" parent="1">
                    <mxGeometry x="517" y="373.5" width="53" height="30" as="geometry"/>
                </mxCell>
                <mxCell id="45" value="&lt;font color=&quot;#000000&quot;&gt;&lt;b&gt;diff = 0&lt;/b&gt;&lt;/font&gt;" style="text;html=1;align=center;verticalAlign=middle;whiteSpace=wrap;rounded=0;" vertex="1" parent="1">
                    <mxGeometry x="687" y="373.5" width="53" height="30" as="geometry"/>
                </mxCell>
                <mxCell id="46" value="&lt;font color=&quot;#000000&quot;&gt;&lt;b&gt;diff = 0&lt;/b&gt;&lt;/font&gt;" style="text;html=1;align=center;verticalAlign=middle;whiteSpace=wrap;rounded=0;" vertex="1" parent="1">
                    <mxGeometry x="770" y="294.5" width="53" height="30" as="geometry"/>
                </mxCell>
                <mxCell id="47" value="&lt;font color=&quot;#000000&quot;&gt;&lt;span&gt;diff = 1&lt;/span&gt;&lt;/font&gt;" style="text;html=1;align=center;verticalAlign=middle;whiteSpace=wrap;rounded=0;fontStyle=1" vertex="1" parent="1">
                    <mxGeometry x="699" y="204" width="53" height="30" as="geometry"/>
                </mxCell>
                <mxCell id="48" value="&lt;font color=&quot;#000000&quot;&gt;&lt;b&gt;diff = 1&lt;/b&gt;&lt;/font&gt;" style="text;html=1;align=center;verticalAlign=middle;whiteSpace=wrap;rounded=0;" vertex="1" parent="1">
                    <mxGeometry x="601" y="94.5" width="53" height="30" as="geometry"/>
                </mxCell>
                <mxCell id="49" value="&lt;font color=&quot;#000000&quot;&gt;&lt;span&gt;diff = 0&lt;/span&gt;&lt;/font&gt;" style="text;html=1;align=center;verticalAlign=middle;whiteSpace=wrap;rounded=0;fontStyle=1" vertex="1" parent="1">
                    <mxGeometry x="646" y="294.5" width="53" height="30" as="geometry"/>
                </mxCell>
                <mxCell id="50" value="&lt;font color=&quot;#000000&quot;&gt;&lt;b&gt;diff = 0&lt;/b&gt;&lt;/font&gt;" style="text;html=1;align=center;verticalAlign=middle;whiteSpace=wrap;rounded=0;" vertex="1" parent="1">
                    <mxGeometry x="453" y="294.5" width="53" height="30" as="geometry"/>
                </mxCell>
                <mxCell id="51" value="&lt;font color=&quot;#000000&quot;&gt;&lt;b&gt;diff = 1&lt;/b&gt;&lt;/font&gt;" style="text;html=1;align=center;verticalAlign=middle;whiteSpace=wrap;rounded=0;" vertex="1" parent="1">
                    <mxGeometry x="407" y="205.25" width="53" height="30" as="geometry"/>
                </mxCell>
                <mxCell id="52" value="Text" style="text;html=1;strokeColor=none;fillColor=none;align=center;verticalAlign=middle;whiteSpace=wrap;rounded=0;fontColor=#FFFFFF;" vertex="1" parent="1">
                    <mxGeometry x="551.5" y="40" width="60" height="30" as="geometry"/>
                </mxCell>
                <mxCell id="53" value="Text" style="text;html=1;strokeColor=none;fillColor=none;align=center;verticalAlign=middle;whiteSpace=wrap;rounded=0;fontColor=#FFFFFF;" vertex="1" parent="1">
                    <mxGeometry x="562" y="420" width="60" height="30" as="geometry"/>
                </mxCell>
                <mxCell id="54" value="Text" style="text;html=1;strokeColor=none;fillColor=none;align=center;verticalAlign=middle;whiteSpace=wrap;rounded=0;fontColor=#FFFFFF;" vertex="1" parent="1">
                    <mxGeometry x="-70" y="235.25" width="60" height="30" as="geometry"/>
                </mxCell>
                <mxCell id="55" value="Text" style="text;html=1;strokeColor=none;fillColor=none;align=center;verticalAlign=middle;whiteSpace=wrap;rounded=0;fontColor=#FFFFFF;" vertex="1" parent="1">
                    <mxGeometry x="581.5" y="70" width="60" height="30" as="geometry"/>
                </mxCell>
            </root>
        </mxGraphModel>
    </diagram>
</mxfile>